# xmcd
#
# Track frame offsets:
#	150
#	10991
#	19810
#	32774
#	44058
#	52920
#	65211
#	77606
#	91260
#	102676
#
# Disc length: 1525 seconds
#
# Revision: 0
# Processed by: cddbd v1.4PL0 Copyright (c) Steve Scherf et al.
# Submitted via: dBpowerAMP V4.0
#
DISCID=8205f30a
DTITLE=Octavio Norzagaray - Sufro Porque Te Quiero
DYEAR=2003
DGENRE=Folklore
TTITLE0=Sufro Porque Te Quiero
TTITLE1=Morena Morenita
TTITLE2=Amor Que Muere
TTITLE3=Que TeHizo Olvidarme
TTITLE4=Estrellita Del Norte Al Oriente
TTITLE5=Amor De Madre
TTITLE6=Irresistible
TTITLE7=Madrecita Querida
TTITLE8=Volver, Volver
TTITLE9=Canción De Amor
EXTD=
EXTT0=
EXTT1=
EXTT2=
EXTT3=
EXTT4=
EXTT5=
EXTT6=
EXTT7=
EXTT8=
EXTT9=
PLAYORDER=
